<?xml version="1.0" encoding="UTF-8"?>
<svg id="Camada_1" xmlns="http://www.w3.org/2000/svg" version="1.1" viewBox="0 0 56.57 54.18">
  <!-- Generator: Adobe Illustrator 30.0.0, SVG Export Plug-In . SVG Version: 2.1.1 Build 123)  -->
  <defs>
    <style>
      .st0 {
        fill: #8b5cf5;
      }
    </style>
  </defs>
  <path class="st0" d="M51.09,45.84v.78c-.24.51-.53.8-1.04,1.04H7.72c-1.52-.6-1.35-2.64.3-2.86l42.01.06c.6.14.77.5,1.06.98Z"/>
  <path class="st0" d="M33.22,40.99c-.02.16.18.07.28.06,1.08-.1,2.16-.24,3.24-.32,2.61-.19,5.2-.27,7.81-.34,1.38-.04,2.95-.27,4.33-.08,1.57.21,1.68,2.65-.17,2.86-1.07.12-2.44-.04-3.56,0-4.53.14-9.09.51-13.62.96-.79.08-1.86.34-2.61.35-1.47.01-3.64-.47-5.2-.61-3.69-.33-7.41-.58-11.1-.7-1.12-.04-2.58.14-3.64,0-1.78-.24-1.6-2.68-.1-2.86,1.39-.17,2.95.05,4.34.09,2.61.07,5.21.15,7.81.34,1.17.09,2.34.25,3.51.35l-.96-.47c-4.23-1.87-8.81-1.86-13.31-2.3-2-.2-1.82-2.69-.35-2.86,1.49-.18,4.24.18,5.8.36,4.55.53,9.63,1.64,13.12,4.75.59-.38,1.08-.87,1.67-1.26,3.96-2.65,10.87-3.67,15.58-3.85.49-.02,1.34-.06,1.8.02,1.44.26,1.51,2.65-.41,2.84-3.92.39-7.25.39-11.13,1.54-1.08.32-2.1.76-3.14,1.15Z"/>
  <path class="st0" d="M27.82,3.27c13.22-1.08,15.94,15.82,5.57,21.45-.31.17-.92.51-1.23.59-1.26.31-2.25-1.02-1.56-2.17.34-.57,1.1-.72,1.64-1.05,7.45-4.5,5.77-16.64-4.01-15.98-5.95.4-8.37,6.2-6.44,11.39,1.23,3.3,3.8,5.66,6.63,7.6,1.01.69,3.31,1.45,2.44,3.08-.85,1.57-2.62.21-3.62-.42-3.53-2.23-6.78-5.4-8.2-9.41-2.44-6.89,1.1-14.44,8.78-15.06Z"/>
  <path class="st0" d="M46.03,34.1c-.52.48-1.38.48-1.92.03-.4-.33-.52-.95-.78-1.39-1.27-2.18-3.49-3.68-5.55-5.02-2.31,3.89-6.22,6.43-10.89,5.42-3.09-.67-5.29-2.86-6.98-5.41-.51.39-1.07.71-1.6,1.09-.46.33-1.96,1.67-2.33,1.75-1.54.32-2.45-1.27-1.38-2.47.77-.86,4.13-3.15,5.2-3.6,1.74-.73,2.04.83,2.71,1.92,3.01,4.86,8.59,5.7,12.13.87.51-.7,1-1.99,1.48-2.51.86-.94,1.92-.19,2.76.28,2.5,1.41,6.61,4.63,7.48,7.45.18.59.15,1.18-.33,1.62Z"/>
  <path class="st0" d="M15.06,34.54c-.5.5-1.49.52-2.01.03-.15-.15-.3-.43-.43-.61-2-2.95-3.68-6.29-5.62-9.3-.39-1.23.76-2.35,1.96-1.79.44.2.62.58.87.95,1.96,2.91,3.6,6.19,5.54,9.12.17.51.07,1.21-.31,1.6Z"/>
</svg>