<?xml version="1.0" encoding="UTF-8"?>
<svg id="Camada_1" xmlns="http://www.w3.org/2000/svg" version="1.1" viewBox="0 0 56.57 54.18">
  <!-- Generator: Adobe Illustrator 30.0.0, SVG Export Plug-In . SVG Version: 2.1.1 Build 123)  -->
  <defs>
    <style>
      .st0 {
        fill: #8b5cf5;
      }
    </style>
  </defs>
  <path class="st0" d="M48.55,25.16l-7.29,2.84-.02,13.61c-.12.96-1.6,1.98-2.37,2.54-7.85,5.7-17.14,5.61-24.77-.46-.74-.59-1.75-1.25-1.79-2.28v-13.4s-9.67-3.86-9.67-3.86c-1.16-.62-1.31-2.09-.23-2.89l24.16-9.67.6.03,23.67,9.42c.63.36.98.83,1.05,1.56.3,3.41-.21,7.28-.03,10.73-.3,1.26-1.74,1.78-2.77.95-.15-.12-.55-.66-.55-.82v-8.3ZM45.62,22.55l-18.84-7.48-18.85,7.53,18.85,7.52c6.1-2.52,12.37-4.69,18.42-7.32.13-.06.42-.1.42-.25ZM37.9,29.33l-10.54,4.23-.97.03-10.73-4.26v11.22c2.37,2.06,5.53,3.68,8.65,4.2,4.97.83,9.87-.95,13.59-4.2v-11.22Z"/>
</svg>