<?xml version="1.0" encoding="UTF-8"?>
<svg id="Camada_1" xmlns="http://www.w3.org/2000/svg" version="1.1" viewBox="0 0 56.57 54.18">
  <!-- Generator: Adobe Illustrator 30.0.0, SVG Export Plug-In . SVG Version: 2.1.1 Build 123)  -->
  <defs>
    <style>
      .st0 {
        fill: #8b5cf5;
      }
    </style>
  </defs>
  <path class="st0" d="M41.25,14v-1.99c0-.05.16-.47.21-.57.81-1.97,3.78-1.48,3.98.66-.19,2.79.25,5.9,0,8.66-.09.99-.83,1.75-1.8,1.89-2.82-.19-5.97.25-8.75,0-2.15-.19-2.64-3.16-.66-3.98.1-.04.52-.21.57-.21h4.81c-5.72-7.26-16.6-8.24-23.62-2.19-8.54,7.36-7.42,20.92,2.21,26.76,9.67,5.86,22.39.42,24.77-10.57.29-1.36.16-2.94.46-4.11.58-2.24,3.86-1.99,4.06.26.43,4.78-2.14,10.66-5.3,14.15-10.96,12.1-31.08,7.34-35.4-8.34C2.48,18.86,16.85,4.54,32.4,8.9c3.37.94,6.28,2.77,8.85,5.1Z"/>
  <path class="st0" d="M26.35,16.45c1.07-.18,2.14.46,2.43,1.51l.07,10.04,5.59,5.59c1.79,2.03-.68,4.75-2.87,3.06-1.87-2.15-4.49-4.1-6.27-6.26-.34-.42-.54-.7-.58-1.26-.31-3.52.24-7.51.01-11.08.1-.71.92-1.47,1.62-1.59Z"/>
</svg>