<?xml version="1.0" encoding="UTF-8"?>
<svg id="Camada_1" xmlns="http://www.w3.org/2000/svg" version="1.1" viewBox="0 0 317.11 61.86">
  <!-- Generator: Adobe Illustrator 30.0.0, SVG Export Plug-In . SVG Version: 2.1.1 Build 123)  -->
  <defs>
    <style>
      .st0 {
        fill: #03c0f2;
      }

      .st1 {
        fill: #fff;
      }
    </style>
  </defs>
  <g>
    <path class="st0" d="M50.21,32.11c2.35.39,4.77.79,7.21-1.38.16-.14.18-.37.07-.55-.12-.17-.35-.23-.53-.13-2.09,1.07-4.22-.08-6.48-1.31-1.74-.94-3.52-1.91-5.34-1.83,1.23-1.29,2.84-1.67,4.53-2.06,2.32-.54,4.71-1.1,6.13-4.04.09-.19.03-.41-.15-.53-.18-.11-.41-.08-.54.08-1.52,1.79-3.93,1.54-6.49,1.27-1.97-.21-3.99-.42-5.63.35.64-1.66,1.99-2.63,3.4-3.64,1.93-1.39,3.93-2.82,4.12-6.08.01-.21-.13-.39-.34-.43-.21-.04-.41.08-.47.28-.72,2.24-3.05,2.93-5.51,3.66-1.9.56-3.84,1.14-5.07,2.48-.04-1.78.83-3.19,1.75-4.67,1.26-2.02,2.55-4.11,1.48-7.19-.07-.2-.27-.31-.48-.27-.2.04-.35.23-.33.44.19,2.34-1.69,3.87-3.69,5.48-1.54,1.25-3.11,2.52-3.73,4.23-.72-1.63-.45-3.27-.17-4.98.39-2.35.79-4.77-1.38-7.21-.14-.16-.37-.18-.55-.07-.17.12-.23.35-.13.53,1.07,2.09-.08,4.22-1.31,6.48-.94,1.74-1.91,3.52-1.83,5.34-1.29-1.23-1.67-2.85-2.06-4.53-.54-2.32-1.1-4.71-4.04-6.13-.19-.09-.41-.03-.53.15-.11.18-.08.41.08.54,1.79,1.52,1.54,3.93,1.27,6.49-.21,1.97-.42,3.99.35,5.63-1.66-.64-2.63-1.99-3.64-3.4-1.39-1.93-2.82-3.93-6.08-4.12-.21-.01-.39.13-.43.34-.04.21.08.41.28.47,2.24.72,2.93,3.05,3.66,5.51.56,1.9,1.14,3.84,2.48,5.07-1.78.04-3.19-.83-4.67-1.75-2.02-1.26-4.11-2.55-7.19-1.48-.2.07-.31.27-.27.48.04.2.23.34.44.33,2.35-.19,3.87,1.69,5.48,3.69,1.25,1.54,2.52,3.11,4.23,3.73-1.63.72-3.27.45-4.98.17-2.35-.39-4.77-.79-7.21,1.38-.16.14-.18.37-.07.55.12.17.35.23.53.13,2.09-1.07,4.22.08,6.48,1.31,1.67.91,3.38,1.84,5.12,1.84.07,0,.14,0,.22,0-1.23,1.29-2.85,1.67-4.53,2.06-2.32.54-4.71,1.1-6.13,4.04-.09.19-.03.41.15.53.07.05.15.07.23.07.12,0,.24-.05.32-.15,1.52-1.79,3.93-1.54,6.49-1.27,1.97.21,3.99.42,5.63-.35-.64,1.66-1.99,2.63-3.4,3.64-1.93,1.39-3.93,2.82-4.12,6.08-.01.21.13.39.34.43.03,0,.05,0,.08,0,.18,0,.34-.11.4-.29.72-2.24,3.05-2.93,5.51-3.66,1.9-.56,3.84-1.14,5.07-2.48.04,1.78-.83,3.19-1.75,4.67-1.26,2.02-2.55,4.11-1.48,7.19.06.17.22.28.39.28.03,0,.06,0,.09,0,.2-.04.35-.23.33-.44-.19-2.34,1.69-3.87,3.69-5.48,1.54-1.25,3.11-2.52,3.73-4.23.72,1.63.45,3.27.17,4.98-.39,2.35-.79,4.77,1.38,7.21.08.09.2.14.31.14.08,0,.16-.02.23-.07.17-.12.23-.35.13-.53-1.07-2.09.08-4.22,1.31-6.48.94-1.74,1.91-3.52,1.83-5.34,1.29,1.23,1.67,2.85,2.06,4.53.54,2.32,1.1,4.71,4.04,6.13.06.03.12.04.18.04.14,0,.27-.07.35-.19.11-.18.08-.41-.08-.54-1.79-1.52-1.54-3.93-1.27-6.49.21-1.97.42-3.99-.35-5.63,1.66.64,2.63,1.99,3.64,3.4,1.39,1.93,2.82,3.93,6.08,4.12,0,0,.02,0,.02,0,.2,0,.37-.14.41-.34.04-.21-.08-.41-.28-.47-2.24-.72-2.93-3.05-3.66-5.51-.56-1.9-1.14-3.84-2.48-5.07,1.78-.04,3.19.83,4.67,1.75,1.49.93,3.02,1.88,4.96,1.88.69,0,1.42-.12,2.23-.4.2-.07.31-.27.27-.48-.04-.2-.23-.35-.44-.33-2.34.19-3.87-1.69-5.48-3.69-1.25-1.54-2.52-3.11-4.23-3.73,1.63-.72,3.27-.45,4.98-.17Z"/>
    <g>
      <g>
        <path class="st1" d="M80.72,14.81c-5.77,0-11.2,4.23-11.2,11.28s5.22,11.3,11.94,11.3c2.88,0,6.08-.94,8.54-2.52l-2.12-3.85c-1.91.96-3.59,1.5-5.55,1.5-3.53,0-5.8-1.4-6.43-4.51h14.7c.09-.53.27-1.69.27-2.86,0-5.85-3.5-10.34-10.14-10.34ZM80.93,19.67c2.48,0,3.94,1.39,4.26,4.06h-9.23c.64-2.7,2.46-4.06,4.97-4.06Z"/>
        <path class="st1" d="M108.54,14.81c-2.31,0-4.68,1.13-6.42,2.71h-.16l-.46-2.19h-5.21v29.52h6.39v-6.3l-.3-3.49h.15c1.53,1.49,3.4,2.33,5.29,2.33,4.83,0,9.34-4.24,9.34-11.62,0-6.65-3.26-10.95-8.63-10.95ZM106.38,32.16c-1.12,0-2.49-.37-3.69-1.43v-8.69c1.34-1.42,2.61-2,3.97-2,2.71,0,3.97,1.92,3.97,5.78,0,4.46-1.9,6.33-4.26,6.33Z"/>
        <path class="st1" d="M132.81,14.81c-5.77,0-11.2,4.23-11.2,11.28s5.22,11.3,11.94,11.3c2.88,0,6.08-.94,8.54-2.52l-2.12-3.85c-1.91.96-3.59,1.5-5.55,1.5-3.53,0-5.8-1.4-6.43-4.51h14.7c.09-.53.27-1.69.27-2.86,0-5.85-3.5-10.34-10.14-10.34ZM133.02,19.67c2.48,0,3.94,1.39,4.26,4.06h-9.23c.64-2.7,2.46-4.06,4.97-4.06Z"/>
        <path class="st1" d="M166.42,30.18c-1.55,1.07-3.41,2.05-5.67,2.05-3.53,0-6.05-2.4-6.05-6.12s2.56-6.14,6.26-6.14c1.62,0,3.13.54,4.77,1.73l2.94-3.96c-1.8-1.72-4.66-2.93-8.06-2.93-6.63,0-12.45,4.13-12.45,11.3s5.2,11.28,11.98,11.28c2.94,0,6.25-1,8.85-3.17l-2.58-4.04Z"/>
      </g>
      <path class="st1" d="M174.36,19.29c0,.97-.78,1.79-1.79,1.79s-1.77-.81-1.77-1.78.78-1.79,1.78-1.79,1.78.8,1.78,1.78ZM174.06,19.29c0-.8-.64-1.47-1.48-1.47s-1.48.67-1.48,1.48.64,1.47,1.47,1.47,1.49-.67,1.49-1.48ZM172.96,19.54l.41.59h-.35l-.33-.54h-.49v.54h-.3v-1.78h.72c.46,0,.72.22.72.61,0,.28-.13.48-.37.57ZM172.62,19.35c.27,0,.44-.14.44-.37s-.16-.36-.44-.36h-.42v.74h.42Z"/>
    </g>
  </g>
  <g>
    <g>
      <path class="st1" d="M196.01,5.56h6.43v1.36h-4.91v2.26h4.35v1.36h-4.35v2.33h4.97v1.36h-6.5V5.56Z"/>
      <path class="st1" d="M203.98,12.97l.92-1.09c.83.72,1.66,1.13,2.74,1.13.94,0,1.54-.43,1.54-1.12,0-.62-.35-.95-1.96-1.34-1.85-.43-2.89-.98-2.89-2.6,0-1.49,1.24-2.52,2.96-2.52,1.26,0,2.27.38,3.15,1.09l-.82,1.15c-.78-.58-1.56-.89-2.36-.89-.89,0-1.41.46-1.41,1.05,0,.67.4.97,2.06,1.36,1.83.45,2.79,1.1,2.79,2.57,0,1.62-1.28,2.59-3.1,2.59-1.33,0-2.58-.46-3.62-1.39Z"/>
      <path class="st1" d="M212.36,9.9c0-2.47,1.85-4.49,4.48-4.49,1.6,0,2.57.56,3.4,1.35l-.98,1.13c-.69-.64-1.44-1.08-2.43-1.08-1.66,0-2.86,1.36-2.86,3.09s1.2,3.09,2.86,3.09c1.07,0,1.75-.43,2.49-1.13l.98.99c-.91.94-1.9,1.54-3.52,1.54-2.53,0-4.41-1.97-4.41-4.49Z"/>
      <path class="st1" d="M221.51,9.9c0-2.44,1.88-4.49,4.55-4.49s4.53,2.02,4.53,4.49-1.88,4.49-4.55,4.49-4.53-2.02-4.53-4.49ZM228.99,9.9c0-1.69-1.23-3.09-2.95-3.09s-2.93,1.38-2.93,3.09,1.23,3.09,2.95,3.09,2.93-1.38,2.93-3.09Z"/>
      <path class="st1" d="M232.68,5.56h1.53v7.29h4.56v1.39h-6.09V5.56Z"/>
      <path class="st1" d="M243.68,5.5h1.41l3.82,8.74h-1.61l-.88-2.1h-4.1l-.89,2.1h-1.56l3.82-8.74ZM245.86,10.79l-1.5-3.47-1.49,3.47h2.99Z"/>
      <path class="st1" d="M196.01,18.69h3.42c2.02,0,3.3,1.15,3.3,2.93,0,1.95-1.56,2.96-3.47,2.96h-1.72v2.79h-1.53v-8.68ZM199.31,23.2c1.15,0,1.87-.64,1.87-1.57,0-1.02-.73-1.55-1.87-1.55h-1.77v3.12h1.77Z"/>
      <path class="st1" d="M204.54,18.69h6.43v1.36h-4.91v2.26h4.35v1.36h-4.35v2.33h4.97v1.36h-6.5v-8.68Z"/>
      <path class="st1" d="M213.09,18.69h3.87c2.03,0,3.22,1.09,3.22,2.76,0,1.43-.86,2.28-2.07,2.63l2.34,3.29h-1.8l-2.16-3.03h-1.88v3.03h-1.53v-8.68ZM216.85,22.99c1.09,0,1.79-.57,1.79-1.48s-.67-1.44-1.8-1.44h-2.22v2.91h2.23Z"/>
      <path class="st1" d="M222.3,18.69h1.41l4.65,6v-6h1.5v8.68h-1.28l-4.79-6.17v6.17h-1.5v-8.68Z"/>
      <path class="st1" d="M235.42,18.63h1.41l3.82,8.74h-1.61l-.88-2.1h-4.1l-.89,2.1h-1.56l3.82-8.74ZM237.6,23.92l-1.5-3.47-1.49,3.47h2.99Z"/>
      <path class="st1" d="M242.39,18.69h1.62l2.64,4.1,2.64-4.1h1.62v8.68h-1.52v-6.22l-2.74,4.09h-.05l-2.72-4.07v6.2h-1.5v-8.68Z"/>
      <path class="st1" d="M253.4,18.69h3.89c.99,0,1.77.27,2.27.77.38.38.58.86.58,1.46,0,1.04-.6,1.6-1.24,1.93,1.02.35,1.72.93,1.72,2.13,0,1.55-1.28,2.38-3.21,2.38h-4.02v-8.68ZM256.98,22.35c.98,0,1.64-.38,1.64-1.2,0-.68-.55-1.1-1.52-1.1h-2.19v2.31h2.08ZM257.43,26.02c1.04,0,1.67-.41,1.67-1.21,0-.73-.58-1.17-1.79-1.17h-2.42v2.38h2.53Z"/>
      <path class="st1" d="M262.46,23.69v-5h1.52v4.93c0,1.61.83,2.48,2.19,2.48s2.18-.82,2.18-2.42v-5h1.53v4.92c0,2.59-1.46,3.89-3.73,3.89s-3.69-1.3-3.69-3.82Z"/>
      <path class="st1" d="M271.85,23.03c0-2.47,1.85-4.49,4.48-4.49,1.6,0,2.57.56,3.4,1.35l-.98,1.13c-.69-.64-1.44-1.08-2.43-1.08-1.66,0-2.86,1.36-2.86,3.09s1.2,3.09,2.86,3.09c1.07,0,1.75-.43,2.49-1.13l.98.99c-.91.94-1.9,1.54-3.52,1.54-2.53,0-4.41-1.97-4.41-4.49Z"/>
      <path class="st1" d="M284.7,18.63h1.41l3.82,8.74h-1.61l-.88-2.1h-4.1l-.89,2.1h-1.56l3.82-8.74ZM286.88,23.92l-1.5-3.47-1.49,3.47h2.99Z"/>
      <path class="st1" d="M291.67,18.69h1.41l4.65,6v-6h1.5v8.68h-1.28l-4.79-6.17v6.17h-1.5v-8.68Z"/>
      <path class="st1" d="M304.79,18.63h1.41l3.82,8.74h-1.61l-.88-2.1h-4.1l-.89,2.1h-1.56l3.82-8.74ZM306.97,23.92l-1.5-3.47-1.49,3.47h2.99Z"/>
      <path class="st1" d="M196.01,31.82h3.24c2.73,0,4.61,1.87,4.61,4.34s-1.88,4.34-4.61,4.34h-3.24v-8.68ZM199.25,39.11c1.82,0,3.01-1.23,3.01-2.95s-1.19-2.95-3.01-2.95h-1.71v5.9h1.71Z"/>
      <path class="st1" d="M205.95,31.82h6.43v1.36h-4.91v2.26h4.35v1.36h-4.35v2.33h4.97v1.36h-6.5v-8.68Z"/>
      <path class="st1" d="M218.47,31.82h6.43v1.36h-4.91v2.26h4.35v1.36h-4.35v2.33h4.97v1.36h-6.5v-8.68Z"/>
      <path class="st1" d="M226.64,36.16c0-2.47,1.85-4.49,4.48-4.49,1.6,0,2.57.56,3.4,1.35l-.98,1.13c-.69-.64-1.44-1.08-2.43-1.08-1.66,0-2.86,1.36-2.86,3.09s1.2,3.09,2.86,3.09c1.07,0,1.75-.43,2.49-1.13l.98.99c-.91.94-1.9,1.54-3.52,1.54-2.53,0-4.41-1.97-4.41-4.49Z"/>
      <path class="st1" d="M235.79,36.16c0-2.44,1.88-4.49,4.55-4.49s4.53,2.02,4.53,4.49-1.88,4.49-4.55,4.49-4.53-2.02-4.53-4.49ZM243.27,36.16c0-1.69-1.23-3.09-2.95-3.09s-2.93,1.38-2.93,3.09,1.23,3.09,2.95,3.09,2.93-1.38,2.93-3.09Z"/>
      <path class="st1" d="M246.96,31.82h1.41l4.65,6v-6h1.5v8.68h-1.28l-4.79-6.17v6.17h-1.5v-8.68Z"/>
      <path class="st1" d="M256.62,36.16c0-2.44,1.88-4.49,4.55-4.49s4.53,2.02,4.53,4.49-1.88,4.49-4.55,4.49-4.53-2.02-4.53-4.49ZM264.1,36.16c0-1.69-1.23-3.09-2.95-3.09s-2.93,1.38-2.93,3.09,1.23,3.09,2.95,3.09,2.93-1.38,2.93-3.09Z"/>
      <path class="st1" d="M267.79,31.82h1.62l2.64,4.1,2.64-4.1h1.62v8.68h-1.52v-6.22l-2.74,4.09h-.05l-2.72-4.07v6.2h-1.5v-8.68Z"/>
      <path class="st1" d="M278.89,31.82h1.53v8.68h-1.53v-8.68Z"/>
      <path class="st1" d="M286.05,31.76h1.41l3.82,8.74h-1.61l-.88-2.1h-4.1l-.89,2.1h-1.56l3.82-8.74ZM288.24,37.05l-1.5-3.47-1.49,3.47h2.99Z"/>
      <path class="st1" d="M195.62,49.29c0-2.47,1.85-4.49,4.48-4.49,1.6,0,2.57.56,3.4,1.35l-.98,1.13c-.69-.64-1.44-1.08-2.43-1.08-1.66,0-2.86,1.36-2.86,3.09s1.2,3.09,2.86,3.09c1.07,0,1.75-.43,2.49-1.13l.98.99c-.91.94-1.9,1.54-3.52,1.54-2.53,0-4.41-1.97-4.41-4.49Z"/>
      <path class="st1" d="M205.41,44.95h3.87c2.03,0,3.22,1.09,3.22,2.76,0,1.43-.86,2.28-2.07,2.63l2.34,3.29h-1.8l-2.16-3.03h-1.88v3.03h-1.53v-8.68ZM209.16,49.25c1.09,0,1.79-.57,1.79-1.48s-.67-1.44-1.8-1.44h-2.22v2.91h2.23Z"/>
      <path class="st1" d="M214.7,44.95h1.52v8.68h-1.52v-8.68Z"/>
      <path class="st1" d="M221.87,44.89h1.41l3.82,8.74h-1.61l-.88-2.1h-4.1l-.89,2.1h-1.56l3.82-8.74ZM224.05,50.18l-1.5-3.47-1.49,3.47h2.99Z"/>
      <path class="st1" d="M229.85,46.36h-2.75v-1.41h7.04v1.41h-2.75v7.27h-1.54v-7.27Z"/>
      <path class="st1" d="M236.09,44.95h1.53v8.68h-1.53v-8.68Z"/>
      <path class="st1" d="M239.44,44.95h1.69l2.62,6.67,2.6-6.67h1.65l-3.61,8.74h-1.34l-3.61-8.74Z"/>
      <path class="st1" d="M251.56,44.89h1.41l3.82,8.74h-1.61l-.88-2.1h-4.1l-.89,2.1h-1.56l3.82-8.74ZM253.75,50.18l-1.5-3.47-1.49,3.47h2.99Z"/>
    </g>
    <rect class="st1" x="187.51" y="5.56" width="1.05" height="48.07"/>
  </g>
</svg>