<?xml version="1.0" encoding="UTF-8"?>
<svg id="Camada_1" xmlns="http://www.w3.org/2000/svg" version="1.1" viewBox="0 0 56.57 54.18">
  <!-- Generator: Adobe Illustrator 30.0.0, SVG Export Plug-In . SVG Version: 2.1.1 Build 123)  -->
  <defs>
    <style>
      .st0 {
        fill: #8b5cf5;
      }
    </style>
  </defs>
  <path class="st0" d="M44.33,9.42l.68,1.45,1.39,9.55c4.44-1.91,9.52.92,9.81,5.86.27,4.45-3.61,7.7-7.91,7.22l1.39,9.55-.3,1.67-.72.97c-.54.38-.94.62-1.58.78-3.28.82-7.26.79-10.61,1.55-1.15.1-2.33-.56-2.62-1.71-.24-.96.4-1.94.26-3-.58-4.45-7.23-4.4-7.57.31-.09,1.25.37,1.57.84,2.55.79,1.63-.1,3.02-1.8,3.44-3.26.81-7.21.79-10.54,1.54-1.56.12-2.95-.83-3.42-2.32l-1.45-9.76c-3.99,1.68-8.61-.32-9.64-4.66-1.15-4.84,2.92-8.98,7.73-8.42l-1.4-9.69c-.01-1.59,1.06-2.94,2.62-3.27,3.41-.23,7.18-1.39,10.54-1.54,1.09-.05,2.1.29,2.57,1.36.55,1.24-.53,2.52.06,4.11,1.45,3.91,7.07,3.1,7.38-1.08.09-1.25-.37-1.57-.84-2.55-.76-1.58.06-3,1.72-3.43,3.24-.85,7.29-.78,10.61-1.55l1.66.23,1.13.85ZM53.14,26.12c-.3-2.07-2.38-3.53-4.43-3.2-1.04.17-1.66,1.01-2.66,1.09-1.61.13-2.28-1.08-2.6-2.43-.72-3.13-.78-6.72-1.44-9.9l-.11-.26-9.41,1.36c2.88,7.05-5.35,13.09-11.13,7.76-1.55-1.42-2.13-3.83-1.96-5.85l-9.41,1.39,1.45,11.04c-.09,1.43-1.26,2.43-2.68,2.23-.75-.11-1.13-.42-1.99-.3-4.03.53-4.62,6.17-.58,7.44,1.54.49,2.2-.12,3.43-.73,1.31-.64,2.78-.06,3.28,1.33l1.77,11,9.41-1.36c-2.88-7.05,5.35-13.09,11.13-7.76,1.55,1.42,2.13,3.83,1.96,5.85l9.41-1.39.03-.28c-.28-3.24-1.25-6.69-1.45-9.9-.06-.99-.03-1.86.78-2.58,1.3-1.15,2.51-.03,3.87-.21,2.06-.27,3.63-2.26,3.33-4.33Z"/>
</svg>